# xmcd
#
# Track frame offsets:
#	150
#	10300
#	21515
#	32820
#	43045
#	56225
#	66675
#	78287
#	89832
#	99314
#	113191
#	125126
#
# Disc length: 1830 seconds
#
# Revision: 1
# Processed by: cddbd v1.5.2PL0 Copyright (c) Steve Scherf et al.
# Submitted via: audiograbber 1.83.01
#
DISCID=af07240c
DTITLE=Dolly Parton - Because I'm A Woman
DYEAR=1968
DGENRE=Country
TTITLE0=You're Gonna Be Sorry
TTITLE1=I Wish I Felt This Way At Home
TTITLE2=False Eyelashes
TTITLE3=I'll Oilwells Love You
TTITLE4=The Only Way Out (Is To Walk Over Me)
TTITLE5=A Little Bit Slow To Catch On
TTITLE6=The Bridge
TTITLE7=Love And Learn
TTITLE8=I'm Running Out Of Love
TTITLE9=Just Because I'm A Woman
TTITLE10=Baby Sister
TTITLE11=Try Being Lonely
EXTD=
EXTT0=
EXTT1=
EXTT2=
EXTT3=
EXTT4=
EXTT5=
EXTT6=
EXTT7=
EXTT8=
EXTT9=
EXTT10=
EXTT11=
PLAYORDER=
